<svg width="30" height="30" viewBox="0 0 30 30" fill="none" xmlns="http://www.w3.org/2000/svg">
<rect width="30" height="30" rx="15" fill="url(#paint0_linear_29_126)"/>
<path d="M10.889 22.88C10.889 22.7067 10.8557 22.62 10.789 22.62L10.329 22.84C10.329 22.7467 10.2757 22.68 10.169 22.64L10.009 22.62C9.90232 22.62 9.76898 22.6667 9.60898 22.76C9.58232 22.6933 9.54898 22.6267 9.50898 22.56C9.46898 22.4933 9.43565 22.4333 9.40898 22.38C9.23565 22.0467 9.06232 21.68 8.88898 21.28C8.72898 20.8667 8.57565 20.4733 8.42898 20.1C8.29565 19.7267 8.18898 19.4333 8.10898 19.22C8.05565 19.0467 7.99565 18.7867 7.92898 18.44C7.86232 18.0933 7.79565 17.6533 7.72898 17.12C7.87565 17.2133 7.98898 17.26 8.06898 17.26C8.16232 17.26 8.24898 17.12 8.32898 16.84C8.36898 16.8933 8.44232 16.92 8.54898 16.92C8.62898 16.92 8.68898 16.8933 8.72898 16.84L9.04898 16.36L9.40898 16.48H9.42898C9.45565 16.48 9.48232 16.4667 9.50898 16.44C9.53565 16.4133 9.57565 16.3867 9.62898 16.36C9.73565 16.2933 9.81565 16.26 9.86898 16.26L9.92898 16.28C10.2623 16.44 10.4757 16.7333 10.569 17.16C10.809 18.1733 11.049 18.68 11.289 18.68C11.529 18.68 11.809 18.4267 12.129 17.92C12.289 17.6667 12.449 17.3733 12.609 17.04C12.7823 16.7067 12.9557 16.3333 13.129 15.92C13.1557 16.08 13.1823 16.16 13.209 16.16C13.2757 16.16 13.389 15.9933 13.549 15.66C13.7223 15.3267 13.9957 14.8667 14.369 14.28C14.5823 13.92 14.849 13.5133 15.169 13.06C15.5023 12.6067 15.8557 12.14 16.229 11.66C16.6023 11.18 16.9623 10.7267 17.309 10.3C17.669 9.87333 17.989 9.50667 18.269 9.2C18.549 8.89333 18.7557 8.69333 18.889 8.6C19.3957 8.25333 19.7957 7.92 20.089 7.6C20.0757 7.69333 20.0557 7.78 20.029 7.86C20.0157 7.92667 20.009 7.97333 20.009 8C20.009 8.05333 20.0357 8.08 20.089 8.08L20.649 7.8V7.88C20.649 7.98667 20.6757 8.04 20.729 8.04C20.769 8.04 20.849 7.98 20.969 7.86C21.089 7.74 21.1557 7.65333 21.169 7.6L21.129 7.88L21.809 7.48L21.649 7.84C21.8623 7.69333 22.0157 7.62 22.109 7.62C22.1623 7.62 22.2023 7.65333 22.229 7.72C22.2557 7.77333 22.269 7.82667 22.269 7.88C22.269 7.96 22.2357 8.05333 22.169 8.16C22.1023 8.26667 22.0157 8.39333 21.909 8.54C21.829 8.64667 21.6957 8.80667 21.509 9.02C21.3357 9.22 21.069 9.52 20.709 9.92C20.349 10.3067 19.869 10.8467 19.269 11.54C19.109 11.7133 18.8623 12.02 18.529 12.46C18.1957 12.8867 17.8157 13.3867 17.389 13.96C16.9757 14.52 16.5623 15.0867 16.149 15.66C15.7357 16.2333 15.369 16.7533 15.049 17.22C14.729 17.6733 14.5023 18.0133 14.369 18.24L13.129 20.34C12.8623 20.7933 12.6423 21.1667 12.469 21.46C12.2957 21.74 12.1623 21.9333 12.069 22.04C11.869 22.28 11.649 22.4933 11.409 22.68L11.229 22.58L11.069 22.68L10.889 22.88Z" fill="#E6F5FF"/>
<defs>
<linearGradient id="paint0_linear_29_126" x1="-1.10645e-08" y1="5.79545" x2="41.3524" y2="7.0458" gradientUnits="userSpaceOnUse">
<stop stop-color="#0099FF"/>
<stop offset="1" stop-color="#05E3E3"/>
</linearGradient>
</defs>
</svg>
